HIERARCHY
ROOT hip
{
  OFFSET 0 0 0
  CHANNELS 6 Xposition Yposition Zposition Zrotation Yrotation Xrotation
  JOINT abdomen
  {
    OFFSET 0 20.6881 -0.73152
    CHANNELS 3 Zrotation Xrotation Yrotation
    JOINT chest
    {
      OFFSET 0 11.7043 -0.48768
      CHANNELS 3 Zrotation Xrotation Yrotation
      JOINT neck
      {
        OFFSET 0 22.1894 -2.19456
        CHANNELS 3 Zrotation Xrotation Yrotation
        JOINT head
        {
          OFFSET -0.24384 7.07133 1.2192
          CHANNELS 3 Zrotation Xrotation Yrotation
          JOINT leftEye
          {
            OFFSET 4.14528 8.04674 8.04672
            CHANNELS 3 Zrotation Xrotation Yrotation
            End Site
            {
              OFFSET 1 0 0
            }
          }
          JOINT rightEye
          {
            OFFSET -3.6576 8.04674 8.04672
            CHANNELS 3 Zrotation Xrotation Yrotation
            End Site
            {
              OFFSET 1 0 0
            }
          }
        }
      }
      JOINT rCollar
      {
        OFFSET -2.68224 19.2634 -4.8768
        CHANNELS 3 Zrotation Xrotation Yrotation
        JOINT rShldr
        {
          OFFSET -8.77824 -1.95073 1.46304
          CHANNELS 3 Zrotation Xrotation Yrotation
          JOINT rForeArm
          {
            OFFSET -28.1742 -1.7115 0.48768
            CHANNELS 3 Zrotation Xrotation Yrotation
            JOINT rHand
            {
              OFFSET -22.5879 0.773209 7.07136
              CHANNELS 3 Zrotation Xrotation Yrotation
              JOINT rThumb1
              {
                OFFSET -1.2192 -0.487915 3.41376
                CHANNELS 3 Zrotation Xrotation Yrotation
                JOINT rThumb2
                {
                  OFFSET -3.37035 -0.52449 3.41376
                  CHANNELS 3 Zrotation Xrotation Yrotation
                  End Site
                  {
                    OFFSET -1.78271 -1.18214 1.43049
                  }
                }
              }
              JOINT rIndex1
              {
                OFFSET -7.75947 0.938293 5.60832
                CHANNELS 3 Zrotation Xrotation Yrotation
                JOINT rIndex2
                {
                  OFFSET -2.54057 -0.884171 1.56538
                  CHANNELS 3 Zrotation Xrotation Yrotation
                  End Site
                  {
                    OFFSET -1.62519 -0.234802 1.16502
                  }
                }
              }
              JOINT rMid1
              {
                OFFSET -8.24714 1.18213 3.41376
                CHANNELS 3 Zrotation Xrotation Yrotation
                JOINT rMid2
                {
                  OFFSET -3.10165 -0.590103 1.0647
                  CHANNELS 3 Zrotation Xrotation Yrotation
                  End Site
                  {
                    OFFSET -2.48547 -0.328903 0.83742
                  }
                }
              }
              JOINT rRing1
              {
                OFFSET -8.82822 0.546677 1.51678
                CHANNELS 3 Zrotation Xrotation Yrotation
                JOINT rRing2
                {
                  OFFSET -2.60934 -0.819778 -0.0198488
                  CHANNELS 3 Zrotation Xrotation Yrotation
                  End Site
                  {
                    OFFSET -2.33842 -0.294052 0.168128
                  }
                }
              }
              JOINT rPinky1
              {
                OFFSET -8.27202 -0.0477905 -0.4584
                CHANNELS 3 Zrotation Xrotation Yrotation
                JOINT rPinky2
                {
                  OFFSET -1.82734 -0.647385 -0.700984
                  CHANNELS 3 Zrotation Xrotation Yrotation
                  End Site
                  {
                    OFFSET -1.69225 -0.51767 -0.607171
                  }
                }
              }
            }
          }
        }
      }
      JOINT lCollar
      {
        OFFSET 2.68224 19.2634 -4.8768
        CHANNELS 3 Zrotation Xrotation Yrotation
        JOINT lShldr
        {
          OFFSET 8.77824 -1.95073 1.46304
          CHANNELS 3 Zrotation Xrotation Yrotation
          JOINT lForeArm
          {
            OFFSET 28.1742 -1.7115 0.48768
            CHANNELS 3 Zrotation Xrotation Yrotation
            JOINT lHand
            {
              OFFSET 22.5879 0.773209 7.07136
              CHANNELS 3 Zrotation Xrotation Yrotation
              JOINT lThumb1
              {
                OFFSET 1.2192 -0.487915 3.41376
                CHANNELS 3 Zrotation Xrotation Yrotation
                JOINT lThumb2
                {
                  OFFSET 3.37035 -0.52449 3.41376
                  CHANNELS 3 Zrotation Xrotation Yrotation
                  End Site
                  {
                    OFFSET 1.78271 -1.18214 1.43049
                  }
                }
              }
              JOINT lIndex1
              {
                OFFSET 7.75947 0.938293 5.60832
                CHANNELS 3 Zrotation Xrotation Yrotation
                JOINT lIndex2
                {
                  OFFSET 2.54057 -0.884171 1.56538
                  CHANNELS 3 Zrotation Xrotation Yrotation
                  End Site
                  {
                    OFFSET 1.62519 -0.234802 1.16502
                  }
                }
              }
              JOINT lMid1
              {
                OFFSET 8.24714 1.18213 3.41376
                CHANNELS 3 Zrotation Xrotation Yrotation
                JOINT lMid2
                {
                  OFFSET 3.10165 -0.590103 1.0647
                  CHANNELS 3 Zrotation Xrotation Yrotation
                  End Site
                  {
                    OFFSET 2.48547 -0.328903 0.83742
                  }
                }
              }
              JOINT lRing1
              {
                OFFSET 8.82822 0.546677 1.51678
                CHANNELS 3 Zrotation Xrotation Yrotation
                JOINT lRing2
                {
                  OFFSET 2.60934 -0.819778 -0.0198488
                  CHANNELS 3 Zrotation Xrotation Yrotation
                  End Site
                  {
                    OFFSET 2.33842 -0.294052 0.168128
                  }
                }
              }
              JOINT lPinky1
              {
                OFFSET 8.27202 -0.0477905 -0.4584
                CHANNELS 3 Zrotation Xrotation Yrotation
                JOINT lPinky2
                {
                  OFFSET 1.82734 -0.647385 -0.700984
                  CHANNELS 3 Zrotation Xrotation Yrotation
                  End Site
                  {
                    OFFSET 1.69225 -0.51767 -0.607171
                  }
                }
              }
            }
          }
        }
      }
    }
  }
  JOINT rButtock
  {
    OFFSET -8.77824 4.35084 1.2192
    CHANNELS 3 Zrotation Xrotation Yrotation
    JOINT rThigh
    {
      OFFSET 0 -1.70687 -2.19456
      CHANNELS 3 Zrotation Xrotation Yrotation
      JOINT rShin
      {
        OFFSET 0 -36.8199 0.73152
        CHANNELS 3 Zrotation Xrotation Yrotation
        JOINT rFoot
        {
          OFFSET 0.73152 -45.1104 -5.12064
          CHANNELS 3 Zrotation Xrotation Yrotation
          End Site
          {
            OFFSET -1.1221 -3.69964 12.103
          }
        }
      }
    }
  }
  JOINT lButtock
  {
    OFFSET 8.77824 4.35084 1.2192
    CHANNELS 3 Zrotation Xrotation Yrotation
    JOINT lThigh
    {
      OFFSET 0 -1.70687 -2.19456
      CHANNELS 3 Zrotation Xrotation Yrotation
      JOINT lShin
      {
        OFFSET 0 -36.8199 0.73152
        CHANNELS 3 Zrotation Xrotation Yrotation
        JOINT lFoot
        {
          OFFSET -0.73152 -45.1104 -5.12064
          CHANNELS 3 Zrotation Xrotation Yrotation
          End Site
          {
            OFFSET 1.1221 -3.69964 12.103
          }
        }
      }
    }
  }
}
MOTION
Frames:	4
Frame Time:	0.03333
0.043477355718304606 35.662664788873506 0.06559289460099765 -2.912444591522217 5.8840837478637695 4.823132514953613 -2.2641358375549316 14.798940658569336 3.8399484157562256 2.6351842880249023 -9.654953002929688 1.212258219718933 -5.028525352478027 15.597275733947754 -3.481696844100952 8.997817039489746 -26.198915481567383 -5.072516441345215 -0.0376778244972229 -0.0022157463245093822 -0.026830071583390236 0.023580102249979973 -0.002822169102728367 0.008883584290742874 0.010114343836903572 -0.038021404296159744 0.00783233530819416 46.77105712890625 36.36248016357422 17.222375869750977 -28.112083435058594 -32.35408401489258 63.32364273071289 -1.4828382730484009 -10.790264129638672 -1.4834210872650146 0.010822206735610962 0.013142773881554604 -0.025251377373933792 0.029415149241685867 0.03246844932436943 -0.01683984324336052 0.017104899510741234 0.0037772031500935555 -0.0256002526730299 7.769903182983398 5.465437889099121 0.44252273440361023 0.009033390320837498 0.013233090750873089 0.021326007321476936 2.8880975246429443 0.9729678630828857 0.1126771941781044 -0.01135747879743576 0.03381095081567764 -0.0033108610659837723 10.262125015258789 0.7241057753562927 0.04404361546039581 0.020080894231796265 -0.01571359671652317 -0.009384938515722752 2.2632834911346436 -0.696546196937561 -0.19290323555469513 -0.024186592549085617 0.0028465131763368845 -0.020440829917788506 -52.7546272277832 39.202457427978516 -29.27006721496582 27.476343154907227 -30.16715431213379 -58.407169342041016 1.8458718061447144 -13.218817710876465 1.940285086631775 0.008487333543598652 -0.019277937710285187 0.013789043761789799 -0.022782256826758385 0.043766800314188004 -0.010134248994290829 0.03403068706393242 0.031716737896203995 0.0041330428794026375 -7.744759559631348 5.464564323425293 -0.40555787086486816 -0.028302697464823723 -0.030878176912665367 -0.015302993357181549 -2.9010448455810547 0.9659625291824341 -0.08350164443254471 -0.005243068560957909 0.023173054680228233 0.03619728982448578 -10.28029727935791 0.7538016438484192 -0.0701742097735405 0.01310538500547409 -0.02081647701561451 -0.02821222133934498 -2.2551259994506836 -0.7423466444015503 0.21567344665527344 0.03265996277332306 0.018679063767194748 -0.012447052635252476 -26.60891342163086 -38.255393981933594 -22.53890609741211 -1.5840572118759155 64.65384674072266 2.698259115219116 -4.853244304656982 -10.540070533752441 -10.531445503234863 -0.02860940620303154 -0.04450440779328346 0.0026656787376850843 33.58002471923828 -38.30021667480469 26.74211311340332 1.8111616373062134 66.15834045410156 -2.887138605117798 5.023977279663086 -10.422780990600586 13.507210731506348
0.13661264130183487 35.89693344721577 0.1669432702500401 -3.0651535987854004 5.555524826049805 4.729576587677002 -2.2495195865631104 14.890239715576172 3.73533296585083 2.715768575668335 -9.64903450012207 1.2089858055114746 -4.987485408782959 15.63026237487793 -3.311748504638672 8.896092414855957 -26.13625717163086 -4.927584171295166 -0.0003557733725756407 0.10306160897016525 -0.009248560294508934 0.01632898859679699 0.03643234819173813 -0.08199934661388397 -0.09194402396678925 -0.0020429380238056183 -0.03583986684679985 46.30414962768555 36.335914611816406 17.679527282714844 -28.28818702697754 -32.36396789550781 63.096614837646484 -1.5617647171020508 -10.949797630310059 -1.4976640939712524 0.046977393329143524 0.004371287301182747 -0.061362627893686295 0.03556746616959572 0.03492877259850502 -0.08245699107646942 0.0033218536991626024 0.03011018969118595 0.0054318346083164215 7.74367094039917 5.433567047119141 0.42025327682495117 -0.049222420901060104 0.02568334899842739 0.029775816947221756 2.9368128776550293 0.9739382863044739 0.008010277524590492 0.012452701106667519 0.02784665860235691 0.01641855388879776 10.263341903686523 0.7199496030807495 0.03534120321273804 0.09139259159564972 -0.03971415385603905 -0.0386977456510067 2.2183382511138916 -0.6806195974349976 -0.2607784867286682 0.0472240187227726 0.07428682595491409 0.0014274449786171317 -52.58091354370117 38.493080139160156 -29.64198112487793 27.39358139038086 -30.32961654663086 -58.30640411376953 2.019148349761963 -13.537210464477539 1.9453412294387817 0.04745592549443245 -0.05507170408964157 0.05712226778268814 -0.0305725559592247 -0.043816376477479935 0.019053256139159203 -0.01102527417242527 0.024419281631708145 -0.09744317829608917 -7.80557918548584 5.410638332366943 -0.45480209589004517 -0.0645461231470108 -0.0370076484978199 -0.016225265339016914 -2.9089505672454834 1.0273411273956299 -0.13136060535907745 0.013757926411926746 -0.014444475062191486 -0.08439174294471741 -10.235474586486816 0.6957966685295105 -0.024382155388593674 -0.05296475067734718 0.057000234723091125 0.010903201065957546 -2.2233023643493652 -0.7668501734733582 0.19104908406734467 -0.030325917527079582 0.06486399471759796 -0.07272791117429733 -27.07820701599121 -38.372867584228516 -22.61532974243164 -1.466568112373352 64.60501861572266 2.5257315635681152 -4.681962013244629 -10.499021530151367 -10.404251098632812 0.004964595660567284 -0.07693120092153549 0.003642414230853319 33.98216247558594 -38.50236892700195 26.93339729309082 1.89439857006073 66.08722686767578 -2.948638677597046 4.88917875289917 -10.292336463928223 13.294713020324707
0.26631078328608965 36.80740449376764 0.37401411531731665 5.548065662384033 27.03995132446289 1.8811891078948975 -12.075395584106445 14.728564262390137 -0.6315404772758484 5.810014247894287 -9.650912284851074 0.4707423150539398 -8.095684051513672 17.160160064697266 -10.525823593139648 12.072946548461914 -24.73379135131836 -18.54785919189453 0.07880482822656631 0.162215456366539 -0.07463628053665161 -0.016955208033323288 0.13317838311195374 -0.14094054698944092 -0.01219650637358427 -0.1413625180721283 0.009453505277633667 42.72039031982422 22.468624114990234 21.929861068725586 -27.65235137939453 -30.461740493774414 62.07893753051758 -0.11814790964126587 5.440437316894531 0.8174644708633423 0.0021690847352147102 -0.18405039608478546 -0.13307160139083862 0.04470331594347954 -0.25957512855529785 -0.1574154496192932 0.14274415373802185 0.06050977483391762 0.12519609928131104 7.692180156707764 5.0058817863464355 0.7629954218864441 -0.10593542456626892 -0.12009883671998978 -0.19488944113254547 2.6782076358795166 1.0189062356948853 0.0474734827876091 0.12292002886533737 -0.08205801248550415 0.17176686227321625 10.38963794708252 0.730174720287323 -0.214756041765213 0.07453294098377228 -0.2203938215970993 0.050932370126247406 2.049509048461914 -0.9292593598365784 0.01832590438425541 -0.10985779762268066 0.12265875935554504 0.0003068193909712136 -67.77156829833984 57.235904693603516 -5.372406482696533 28.62513542175293 -38.677791595458984 -79.60327911376953 2.6469526290893555 -38.20515060424805 6.27547025680542 0.36954444646835327 -0.2843638062477112 -0.1401337832212448 0.10274109989404678 0.020746855065226555 -0.012653941288590431 0.03889928385615349 0.15352515876293182 -0.1707579344511032 -7.81178092956543 5.283389568328857 -0.6899704933166504 -0.16972476243972778 -0.1427108198404312 -0.10234245657920837 -2.5265846252441406 0.9978713989257812 -0.22552400827407837 0.183232843875885 0.026929453015327454 -0.30597609281539917 -10.302169799804688 0.7376415729522705 0.004262176342308521 -0.12439616024494171 0.22515588998794556 -0.04836248606443405 -2.2277228832244873 -0.4751882553100586 0.23154990375041962 -0.10009868443012238 0.02194221317768097 0.07235203683376312 -58.05817413330078 -61.16632843017578 -48.9616813659668 -2.1050071716308594 75.11161041259766 2.3563737869262695 2.4118282794952393 1.3474369049072266 10.871126174926758 0.3805188238620758 -0.09097202122211456 0.10219044238328934 12.418160438537598 -5.531813621520996 7.789766311645508 0.5617714524269104 48.05009460449219 -2.74796724319458 12.175150871276855 -20.29718780517578 31.87775421142578
0.695682407887596 36.27508004042436 0.941536027557557 3.854081630706787 17.629467010498047 3.4432506561279297 -12.652132034301758 12.589278221130371 0.952629804611206 4.985825061798096 -8.827315330505371 0.24456046521663666 -6.775840759277344 16.217037200927734 -8.18197250366211 10.903450012207031 -22.36845588684082 -14.317362785339355 -0.014002242125570774 0.12957511842250824 0.05941377207636833 -0.39924779534339905 0.12922275066375732 -0.5845010876655579 0.04354839026927948 -0.1835099309682846 0.3518119752407074 48.50986862182617 31.275732040405273 10.338327407836914 -28.349811553955078 -33.063499450683594 72.8564682006836 0.18386369943618774 0.9648458957672119 -0.18833573162555695 0.045750174671411514 -0.24370162189006805 0.07188622653484344 -0.21863430738449097 -0.3482148349285126 -0.05578911304473877 0.01686677895486355 -0.13774028420448303 -0.0009525759960524738 7.525079250335693 4.861440658569336 0.9070714712142944 -0.16459177434444427 -0.046001799404621124 -0.040536683052778244 2.85929012298584 1.0163383483886719 0.26089683175086975 0.4845955967903137 -0.19011206924915314 -0.132582426071167 10.167576789855957 0.5156452059745789 0.2346012443304062 0.5923973321914673 0.1530463993549347 -0.4357711374759674 2.0535311698913574 -1.045094609260559 -0.16200917959213257 -0.30216094851493835 -0.3029736876487732 0.32919612526893616 -63.958702087402344 56.37666702270508 -7.159707546234131 28.43096351623535 -39.59332275390625 -84.34974670410156 2.4271767139434814 -36.33351135253906 5.603570938110352 0.4405311942100525 0.024880636483430862 -0.7463805675506592 -0.08591216057538986 -0.16467030346393585 0.13116765022277832 0.2659279704093933 0.12904542684555054 -0.07488018274307251 -7.818623065948486 5.3315043449401855 -0.7811216115951538 0.06198940426111221 0.4341161847114563 -0.21033553779125214 -2.56554913520813 1.2825740575790405 0.2317163497209549 0.3351964056491852 0.008801559917628765 0.1776990294456482 -10.371210098266602 0.6210757493972778 0.1629660278558731 -0.23764294385910034 0.07562102377414703 -0.17589931190013885 -2.3888967037200928 -0.4437570869922638 0.4866502583026886 -0.3759467601776123 0.051094915717840195 0.032950375229120255 -56.86479187011719 -60.14822006225586 -48.68124771118164 -0.3171641230583191 69.66213989257812 0.493264764547348 2.4712202548980713 1.6354390382766724 14.278386116027832 0.4931001365184784 -0.6215485334396362 -0.09792863577604294 13.178112030029297 4.034862041473389 6.714356899261475 0.67572420835495 41.95326614379883 -3.121241331100464 14.092632293701172 -21.350305557250977 34.26456832885742
